<?xml version="1.0" standalone="no"?>
<!DOCTYPE svg PUBLIC "-//W3C//DTD SVG 20010904//EN"
 "http://www.w3.org/TR/2001/REC-SVG-20010904/DTD/svg10.dtd">
<svg version="1.0" xmlns="http://www.w3.org/2000/svg"
 width="300.000000pt" height="300.000000pt" viewBox="0 0 300.000000 300.000000"
 preserveAspectRatio="xMidYMid meet">
<metadata>
Created by potrace 1.14, written by Peter Selinger 2001-2017
</metadata>
<g transform="translate(0.000000,300.000000) scale(0.100000,-0.100000)"
fill="#000000" stroke="none">
<path d="M0 1500 l0 -1500 1500 0 1500 0 0 1500 0 1500 -1500 0 -1500 0 0
-1500z m1390 869 c21 -79 33 -94 93 -110 99 -26 99 -28 14 -55 -86 -28 -83
-25 -114 -134 l-19 -65 -19 70 c-10 39 -22 78 -27 87 -4 9 -40 27 -78 39 -39
13 -70 26 -70 29 0 4 28 15 63 25 34 10 69 26 78 36 9 10 24 50 34 89 10 39
19 69 22 66 2 -2 13 -37 23 -77z m780 -97 c23 -29 26 -62 5 -62 -8 0 -30 16
-50 36 -27 27 -33 39 -25 49 15 18 46 8 70 -23z m-1529 -55 c-12 -32 -48 -77
-63 -77 -21 0 11 88 46 126 18 20 29 -13 17 -49z m1747 -33 c163 -142 248
-378 227 -628 -4 -47 -10 -84 -15 -81 -4 3 -6 -4 -3 -14 10 -39 -81 -305 -101
-294 -6 3 -8 3 -4 -2 10 -10 -41 -102 -99 -179 -117 -153 -273 -277 -453 -357
-102 -45 -242 -85 -260 -74 -5 3 -11 1 -15 -5 -9 -15 -269 -12 -345 4 -299 63
-499 179 -673 387 -46 56 -103 136 -125 178 -43 81 -99 225 -107 275 -2 17
-11 67 -20 111 -35 188 24 517 98 541 10 3 21 3 24 0 3 -3 0 -38 -7 -78 -19
-115 -24 -208 -11 -221 6 -6 11 -20 11 -30 0 -26 63 -110 113 -151 64 -52 170
-104 245 -121 37 -9 83 -20 102 -25 19 -5 103 -16 186 -25 174 -18 241 -33
322 -74 l57 -29 95 45 c146 68 262 116 441 183 249 93 329 142 368 223 42 86
24 179 -68 364 -71 141 -68 152 17 77z m-657 -183 l34 -14 -33 -10 c-26 -8
-34 -18 -44 -51 l-11 -41 -12 39 c-9 32 -18 42 -46 51 l-34 12 36 16 c30 12
38 22 44 53 l8 39 12 -40 c9 -30 19 -43 46 -54z m616 -152 c29 -55 7 -150 -31
-136 -12 5 -16 20 -16 71 0 97 18 122 47 65z"/>
</g>
</svg>
